<?xml version="1.0" encoding="UTF-8" standalone="no"?>
<svg
        width="24"
        height="24"
        viewBox="0 -2.5 24 24"
        fill-rule="evenodd"
        fill="currentColor"
        version="1.1"
        id="svg4"
        xmlns="http://www.w3.org/2000/svg"
>

    <path
            id="path1"
            d="M 0.5 0 C 0.223858 0 0 0.223858 0 0.5 C 0 0.776142 0.223858 1 0.5 1 L 3.109375 1 L 6.015625 12.621094 C 6.071265 12.843694 6.27057 13 6.5 13 L 19 13 C 19.2187 13 19.411362 12.857238 19.476562 12.648438 L 20.617188 8.9960938 C 20.578555 8.9990762 20.539398 9 20.5 9 C 20.185269 9 19.893571 8.9039175 19.652344 8.7382812 L 18.632812 12 L 6.890625 12 L 5.140625 5 L 16.085938 5 C 16.030662 4.8436107 16 4.6753179 16 4.5 C 16 4.3246821 16.030662 4.1563893 16.085938 4 L 4.890625 4 L 3.984375 0.37890625 C 3.928735 0.15632325 3.72943 0 3.5 0 L 0.5 0 z "/>
    <path
            d="M8.5 18C9.32843 18 10 17.3284 10 16.5C10 15.6716 9.32843 15 8.5 15C7.67157 15 7 15.6716 7 16.5C7 17.3284 7.67157 18 8.5 18ZM8.5 19C9.88071 19 11 17.8807 11 16.5C11 15.1193 9.88071 14 8.5 14C7.11929 14 6 15.1193 6 16.5C6 17.8807 7.11929 19 8.5 19Z"
            id="path2"/>
    <path
            d="M16.5 18C17.3284 18 18 17.3284 18 16.5C18 15.6716 17.3284 15 16.5 15C15.6716 15 15 15.6716 15 16.5C15 17.3284 15.6716 18 16.5 18ZM16.5 19C17.8807 19 19 17.8807 19 16.5C19 15.1193 17.8807 14 16.5 14C15.1193 14 14 15.1193 14 16.5C14 17.8807 15.1193 19 16.5 19Z"
            id="path3"/>

    <path d="M18,4.5 H23" stroke="currentColor" stroke-width="1" stroke-linecap="round"/>
    <path d="M20.5,2 V7" stroke="currentColor" stroke-width="1" stroke-linecap="round"/>
</svg>
