<svg width="42" height="46" viewBox="0 0 42 46" fill="none" xmlns="http://www.w3.org/2000/svg">
<path fill-rule="evenodd" clip-rule="evenodd" d="M0 15.3025V30.6975C0 33.4486 1.46566 35.9896 3.84223 37.3586L17.0753 44.9816C19.4243 46.3348 22.3108 46.3397 24.6644 44.9947L38.0336 37.3541C40.4229 35.9886 41.8985 33.4405 41.8985 30.68V15.32C41.8985 12.5595 40.4229 10.0114 38.0336 8.64589L24.6644 1.00534C22.3108 -0.339752 19.4243 -0.334789 17.0753 1.01837L3.84222 8.64136C1.46566 10.0104 0 12.5514 0 15.3025ZM3.32528 30.6975V15.3025C3.32528 13.7475 4.15369 12.3113 5.49697 11.5375L8.47946 9.81942V36.1806L5.49697 34.4625C4.1537 33.6887 3.32528 32.2525 3.32528 30.6975ZM15.13 40.0117L18.73 42.0855C20.0577 42.8503 21.6892 42.8531 23.0195 42.0928L35.0301 35.2288H14.9638C14.0455 35.2288 13.3011 34.4813 13.3011 33.5593C13.3011 32.6373 14.0455 31.8898 14.9638 31.8898H38.402C38.5142 31.5019 38.5732 31.0952 38.5732 30.68V18.2003H14.9638C14.0455 18.2003 13.3011 17.4529 13.3011 16.5308C13.3011 15.6088 14.0455 14.8614 14.9638 14.8614H38.5491C38.4033 13.4815 37.6057 12.2432 36.3887 11.5477L23.0195 3.90715C21.6892 3.14688 20.0577 3.14968 18.73 3.91451L15.13 5.98831V13.5258C13.4772 13.5258 12.1373 14.8712 12.1373 16.5308C12.1373 18.1905 13.4772 19.5359 15.13 19.5359V30.5543C13.4772 30.5543 12.1373 31.8997 12.1373 33.5593C12.1373 35.2189 13.4772 36.5643 15.13 36.5643V40.0117Z" fill="#0A4ECB"/>
</svg>
